HIERARCHY
ROOT Hips
{
	OFFSET 0.000000 0.000000 0.000000
	CHANNELS 6 Xposition Yposition Zposition Zrotation Yrotation Xrotation 
	JOINT LeftUpLeg_virtual
	{
		OFFSET 0.000000 0.000000 0.000000
		CHANNELS 3 Zrotation Yrotation Xrotation
		JOINT LeftUpLeg
		{
			OFFSET 10.205400 -3.823500 0.155100
			CHANNELS 3 Zrotation Yrotation Xrotation
			JOINT LeftLeg
			{
				OFFSET 0.708757 -12.982077 0.567790
				CHANNELS 3 Zrotation Yrotation Xrotation
				JOINT LeftFoot
				{
					OFFSET -0.708756 -10.717838 -2.184338
					CHANNELS 3 Zrotation Yrotation Xrotation
					JOINT LeftToeBase
					{
						OFFSET 0.108149 -7.191104 7.560241
						CHANNELS 3 Zrotation Yrotation Xrotation
						End Site
						{
							OFFSET 0.000000 0.000000 0.000000
						}
					}
				}
			}
		}
	}
	JOINT RightUpLeg_virtual
	{
		OFFSET 0.000000 0.000000 0.000000
		CHANNELS 3 Zrotation Yrotation Xrotation
		JOINT RightUpLeg
		{
			OFFSET -10.205400 -3.823500 0.005500
			CHANNELS 3 Zrotation Yrotation Xrotation
			JOINT RightLeg
			{
				OFFSET -0.708756 -12.982134 0.610632
				CHANNELS 3 Zrotation Yrotation Xrotation
				JOINT RightFoot
				{
					OFFSET 0.708754 -10.717769 -1.945823
					CHANNELS 3 Zrotation Yrotation Xrotation
					JOINT RightToeBase
					{
						OFFSET -0.108140 -7.191069 7.372968
						CHANNELS 3 Zrotation Yrotation Xrotation
						End Site
						{
							OFFSET 0.000000 0.000000 0.000000
						}
					}
				}
			}
		}
	}
	JOINT Spine_virtual
	{
		OFFSET 0.000000 0.000000 0.000000
		CHANNELS 3 Zrotation Yrotation Xrotation
		JOINT Spine
		{
			OFFSET 0.000000 6.876099 0.125700
			CHANNELS 3 Zrotation Yrotation Xrotation
			JOINT Spine1
			{
				OFFSET 0.000000 8.022060 0.146608
				CHANNELS 3 Zrotation Yrotation Xrotation
				JOINT Spine2
				{
					OFFSET 0.000000 9.168068 0.167552
					CHANNELS 3 Zrotation Yrotation Xrotation
					JOINT Neck_virtual
					{
						OFFSET 0.000000 0.000000 0.000000
						CHANNELS 3 Zrotation Yrotation Xrotation
						JOINT Neck
						{
							OFFSET 0.000000 10.314075 0.188496
							CHANNELS 3 Zrotation Yrotation Xrotation
							JOINT Head
							{
								OFFSET 0.000000 7.643700 -2.377400
								CHANNELS 3 Zrotation Yrotation Xrotation
								End Site
								{
									OFFSET 0.000000 0.000000 0.000000
								}
							}
						}
					}
					JOINT LeftShoulder_virtual
					{
						OFFSET 0.000000 0.000000 0.000000
						CHANNELS 3 Zrotation Yrotation Xrotation
						JOINT LeftShoulder
						{
							OFFSET 4.392200 8.824978 0.174984
							CHANNELS 3 Zrotation Yrotation Xrotation
							JOINT LeftArm
							{
								OFFSET 8.771219 -2.981674 -0.026999
								CHANNELS 3 Zrotation Yrotation Xrotation
								JOINT LeftForeArm
								{
									OFFSET 8.512804 0.000000 -0.000000
									CHANNELS 3 Zrotation Yrotation Xrotation
									JOINT LeftHand
									{
										OFFSET 18.484802 0.000000 -0.000000
										CHANNELS 3 Zrotation Yrotation Xrotation
										End Site
										{
											OFFSET 0.000000 0.000000 0.000000
										}
									}
								}
							}
						}
					}
					JOINT RightShoulder_virtual
					{
						OFFSET 0.000000 0.000000 0.000000
						CHANNELS 3 Zrotation Yrotation Xrotation
						JOINT RightShoulder
						{
							OFFSET -4.392200 8.824993 0.141379
							CHANNELS 3 Zrotation Yrotation Xrotation
							JOINT RightArm
							{
								OFFSET -8.771282 -2.981682 -0.094208
								CHANNELS 3 Zrotation Yrotation Xrotation
								JOINT RightForeArm
								{
									OFFSET -8.494598 0.000000 0.000000
									CHANNELS 3 Zrotation Yrotation Xrotation
									JOINT RightHand
									{
										OFFSET -18.483803 0.000000 0.000001
										CHANNELS 3 Zrotation Yrotation Xrotation
										End Site
										{
											OFFSET 0.000000 0.000000 0.000000
										}
									}
								}
							}
						}
					}
				}
			}
		}
	}
}
MOTION
Frames: 9
Frame Time: 0.033333
-2.972986 36.367905 -37.921879 179.824975 -4.064614 179.923480 -1.586616 -1.796611 12.003111 -6.663209 -4.527848 -17.844805 9.796764 9.246388 21.668652 2.299917 -0.220942 4.126331 0.000000 0.000000 0.000000 2.134687 -0.566934 11.520384 -0.406266 -0.946586 -12.521435 -7.155534 0.832319 16.347134 9.041090 0.915094 4.435141 0.000000 0.000000 0.000000 0.605305 1.119618 0.527584 -3.370413 -1.027550 -9.802425 -0.127191 -3.342085 4.286316 -0.011791 -0.006317 0.008181 0.016345 -1.856652 5.643113 -0.521200 2.245811 18.956577 0.000000 0.000000 0.000000 1.875812 -0.985687 2.174380 -6.427786 4.215349 -7.352621 3.602667 5.214718 -41.511813 -1.343131 -41.141030 -2.102566 0.000000 0.000000 0.000000 -2.374097 -0.135935 1.480372 18.121713 -7.388682 -20.843127 12.801958 -10.976456 -52.759076 -0.615574 31.108196 1.570206 0.000000 0.000000 0.000000 
-2.967721 36.376808 -37.853447 179.634494 -4.154654 179.926703 -1.477445 -1.346360 11.825522 -6.893704 -4.732042 -17.987493 9.925932 9.845480 21.296072 2.720881 0.143937 3.891794 0.000000 0.000000 0.000000 2.001168 -0.750433 11.459139 -0.195155 -1.496580 -12.416026 -7.127541 0.280128 16.405380 8.446764 0.409906 3.703482 0.000000 0.000000 0.000000 0.489380 1.104040 0.549632 -3.439776 -1.020175 -9.770599 -0.164763 -3.363042 4.275880 0.129107 -0.016592 0.021329 0.011774 -1.887614 5.596102 -0.511334 2.230077 18.915529 0.000000 0.000000 0.000000 1.819174 -1.035252 2.179311 -6.485400 4.208525 -7.332933 3.554471 5.244621 -41.500755 -1.318049 -41.145965 -2.133577 0.000000 0.000000 0.000000 -2.407025 -0.174742 1.413683 18.134367 -7.435874 -20.751687 12.797877 -11.113889 -52.739244 -0.569972 31.446901 1.572782 0.000000 0.000000 0.000000 
-2.962729 36.372868 -37.784786 179.711525 -4.100644 179.948068 -1.366983 -1.299270 11.695588 -6.911340 -4.641168 -18.024084 9.920305 9.886189 21.292961 2.691226 0.115142 3.870133 0.000000 0.000000 0.000000 2.096160 -0.751806 11.245289 -0.232313 -1.505125 -12.390670 -7.043249 0.311502 16.528607 8.426658 0.327872 3.561180 0.000000 0.000000 0.000000 0.582163 1.088175 0.595888 -3.368766 -1.001415 -9.823044 -0.116536 -3.341781 4.240304 0.017954 -0.003670 0.025924 0.050273 -1.887542 5.654480 -0.451651 2.250746 18.923773 0.000000 0.000000 0.000000 1.866427 -1.025303 2.259536 -6.509429 4.231050 -7.409766 3.467725 5.260522 -41.457394 -1.358532 -41.067421 -2.109822 0.000000 0.000000 0.000000 -2.370931 -0.196287 1.511506 18.179291 -7.403543 -20.780284 12.822437 -11.223992 -52.715065 -0.520080 31.882254 1.561614 0.000000 0.000000 0.000000 
-2.950572 36.371662 -37.730961 179.739884 -4.100299 179.864863 -1.350816 -1.228082 11.656793 -6.824739 -4.519277 -18.074427 9.922570 10.039173 21.413722 2.546379 0.021944 3.818386 0.000000 0.000000 0.000000 2.120710 -0.720462 11.231683 -0.229622 -1.538459 -12.489952 -6.988223 0.388504 16.743669 8.434074 0.232516 3.613051 0.000000 0.000000 0.000000 0.603316 1.100864 0.648180 -3.354598 -0.985276 -9.776795 -0.089427 -3.355517 4.281939 0.056400 -0.011272 -0.015209 -0.013509 -1.804733 5.708542 -0.406119 2.214361 18.964114 0.000000 0.000000 0.000000 1.791745 -1.018331 2.285818 -6.588859 4.189241 -7.353189 3.314287 5.338736 -41.438891 -1.399266 -40.987887 -2.081466 0.000000 0.000000 0.000000 -2.434806 -0.193021 1.502847 18.191425 -7.384836 -20.689635 12.701568 -11.343578 -52.603323 -0.475093 32.242611 1.474741 0.000000 0.000000 0.000000 
-2.933529 36.372227 -37.696869 179.720787 -4.085640 179.978736 -1.385826 -1.293789 11.602039 -6.759942 -4.410920 -18.252482 9.952885 10.068730 21.545898 2.470317 0.007782 3.773662 0.000000 0.000000 0.000000 2.135851 -0.646905 11.146179 -0.218226 -1.585445 -12.737439 -6.911483 0.381211 17.009133 8.482172 0.122699 3.651966 0.000000 0.000000 0.000000 0.620940 1.056482 0.609486 -3.365745 -0.974536 -9.807792 -0.121935 -3.330007 4.296291 0.012324 -0.016746 -0.008604 0.037965 -1.847695 5.785125 -0.294794 2.182669 18.978932 0.000000 0.000000 0.000000 1.841495 -0.934189 2.378315 -6.650837 4.213437 -7.461657 3.164416 5.298313 -41.397783 -1.509866 -40.914285 -1.999265 0.000000 0.000000 0.000000 -2.368676 -0.124660 1.559465 18.170065 -7.229018 -20.623444 12.632405 -11.585943 -52.652351 -0.290273 32.403862 1.518644 0.000000 0.000000 0.000000 
-2.916548 36.376507 -37.661251 179.779021 -4.094713 179.938588 -1.385794 -1.412376 11.640516 -6.603173 -4.138966 -18.443975 9.994851 10.225727 21.805956 2.240382 -0.103925 3.686027 0.000000 0.000000 0.000000 2.165033 -0.716890 11.180367 -0.197908 -1.585734 -12.961861 -6.872233 0.455842 17.161663 8.558351 -0.006725 3.873052 0.000000 0.000000 0.000000 0.655997 1.025146 0.672724 -3.360614 -0.934029 -9.785609 -0.118648 -3.274447 4.348440 0.036874 -0.007624 0.012714 -0.025813 -1.750623 5.842428 -0.169831 2.135569 19.028231 0.000000 0.000000 0.000000 1.748162 -0.925506 2.425325 -6.693631 4.136105 -7.229695 2.983126 5.350619 -41.507005 -1.420800 -40.778043 -2.161015 0.000000 0.000000 0.000000 -2.455243 -0.103370 1.676961 18.182404 -7.187568 -20.442635 12.594070 -11.649876 -52.629118 -0.375286 32.102251 1.187843 0.000000 0.000000 0.000000 
-2.896803 36.383472 -37.608150 179.751837 -4.021256 179.909327 -1.436815 -1.480649 11.654307 -6.536346 -3.957327 -18.631936 9.992945 10.226190 21.991899 2.146326 -0.101378 3.659364 0.000000 0.000000 0.000000 2.173711 -0.761359 11.121797 -0.246488 -1.536725 -13.171259 -6.742922 0.509833 17.372750 8.613482 -0.200267 3.975744 0.000000 0.000000 0.000000 0.646609 1.060266 0.694812 -3.369232 -0.942674 -9.683415 -0.142763 -3.228996 4.409691 0.009209 -0.026815 0.005516 -0.015345 -1.743045 5.852797 -0.024025 2.073660 18.977513 0.000000 0.000000 0.000000 1.743463 -0.843889 2.475479 -6.668995 4.083419 -7.267974 2.764791 5.329612 -41.519053 -1.582841 -40.800606 -2.034877 0.000000 0.000000 0.000000 -2.450918 -0.051255 1.652627 18.212486 -7.131433 -20.400269 12.469081 -11.771382 -52.694756 -0.182244 31.635080 1.153824 0.000000 0.000000 0.000000 
-2.875504 36.393040 -37.526608 179.738163 -3.853654 -179.995224 -1.475299 -1.398876 11.550102 -6.461212 -3.706367 -18.863393 9.930001 10.261558 22.142589 2.049431 -0.108640 3.684526 0.000000 0.000000 0.000000 2.174360 -0.622363 10.937951 -0.239442 -1.586489 -13.425738 -6.731913 0.572635 17.616752 8.731925 -0.383642 4.147428 0.000000 0.000000 0.000000 0.622897 0.976269 0.636997 -3.387024 -0.862491 -9.606013 -0.160202 -3.124293 4.429383 0.012873 0.008754 0.016075 -0.032650 -1.687229 5.908002 0.075245 1.945186 18.892786 0.000000 0.000000 0.000000 1.719023 -0.763164 2.611044 -6.636370 3.941079 -7.156592 2.459601 5.419141 -41.557979 -1.671203 -40.839149 -1.988377 0.000000 0.000000 0.000000 -2.442063 -0.037081 1.754434 18.263379 -7.166690 -20.286275 12.478091 -11.742248 -52.760387 -0.157270 31.137241 0.931384 0.000000 0.000000 0.000000 
-2.856495 36.401138 -37.415607 179.810686 -3.654457 -179.977711 -1.450196 -1.408676 11.434667 -6.351443 -3.334610 -19.073066 9.892465 10.362737 22.378285 1.924059 -0.153731 3.647321 0.000000 0.000000 0.000000 2.249533 -0.557908 10.766122 -0.207997 -1.674004 -13.718263 -6.784154 0.628940 17.923659 8.842528 -0.363739 4.324671 0.000000 0.000000 0.000000 0.634543 0.942082 0.648756 -3.348448 -0.908637 -9.417017 -0.125729 -2.947213 4.459975 0.037882 -0.038189 -0.001871 -0.125323 -1.549121 5.899494 0.217182 1.822934 18.730489 0.000000 0.000000 0.000000 1.618055 -0.683293 2.607438 -6.534542 3.881957 -7.058453 2.093212 5.408175 -41.512814 -1.656680 -40.905217 -2.024738 0.000000 0.000000 0.000000 -2.534118 0.091420 1.755976 18.356668 -7.154563 -20.068486 12.643214 -11.718902 -53.127817 -0.033224 30.747230 0.726177 0.000000 0.000000 0.000000 
